<?xml version="1.0" encoding="UTF-8"?>
<svg width="258px" height="36px" viewBox="0 0 258 36" version="1.1" xmlns="http://www.w3.org/2000/svg" xmlns:xlink="http://www.w3.org/1999/xlink">
    <!-- Generator: Sketch 53.2 (72643) - https://sketchapp.com -->
    <title>Group 4</title>
    <desc>Created with Sketch.</desc>
    <g id="Homepage" stroke="none" stroke-width="1" fill="none" fill-rule="evenodd">
        <g id="Header-Scrolled" transform="translate(-60.000000, -32.000000)">
            <g id="Group-2" transform="translate(60.000000, 32.000000)">
                <g id="Group-4">
                    <g id="Group-3" fill="#003782">
                        <path d="M26.5064158,29.9708308 L24.1509842,29.9708308 L24.1509842,22.3504615 L26.5064158,22.3504615 C27.8018474,22.3504615 28.8618474,23.4024923 28.8618474,24.6888 L28.8618474,27.6322154 C28.8618474,28.9185231 27.8018474,29.9708308 26.5064158,29.9708308" id="Fill-2"></path>
                        <polyline id="Fill-3" points="18.7739947 18.3408923 26.5064158 12.1815692 11.4725474 0.121292308 11.4725474 29.9708308 18.3438579 29.9708308 18.3438579 20.8816615 15.6302579 20.8816615 18.7739947 18.3408923"></polyline>
                        <polyline id="Fill-4" points="26.5064158 12.1815692 34.2385579 18.3408923 37.3822947 20.8816615 34.6686947 20.8816615 34.6686947 29.9708308 41.5402842 29.9708308 41.5402842 0.121292308 26.5064158 12.1815692"></polyline>
                        <path d="M52.7352789,35.8133538 C48.5753368,34.7175692 44.3328263,33.9687692 40.0919895,33.4692 C35.5814105,32.9377846 31.0390316,32.6874462 26.5064158,32.6874462 C21.9735211,32.6871692 17.4311421,32.9377846 12.9205632,33.4692 C8.67944737,33.9687692 4.43693684,34.7175692 0.276994737,35.8133538 L0.0170157895,35.8820308 C14.6031737,29.4928615 38.4489895,29.5103077 52.9952579,35.8820308 L52.7352789,35.8133538" id="Fill-5"></path>
                    </g>
                    <path d="M73.7450863,14.9844265 L69.2328352,22.4471422 L64.7017073,14.9788028 L64.7017073,23.933218 L63,23.933218 L63,11.0506137 L64.2633464,11.0506137 L69.2321361,19.2134862 L74.2002266,11.0506137 L75.4467936,11.0506137 L75.4467936,23.933218 L73.7450863,23.933218 L73.7450863,14.9844265 Z M95.3457231,20.5217109 L89.3484981,20.5217109 L87.8516389,23.933218 L85.9912267,23.933218 L91.771019,11.0506137 L92.9385832,11.0506137 L98.7001979,23.933218 L96.8593617,23.933218 L95.3457231,20.5217109 Z M115.749432,11.0506137 L117.451139,11.0506137 L117.451139,18.5709728 C117.451139,21.6000649 116.021397,24 112.7662,24 C110.516367,24 108.584643,22.3627859 108.22109,20.1308603 L108.129502,19.5670794 L109.755003,19.374466 L109.85498,19.8665441 C110.14023,21.2703726 111.330166,22.2896772 112.7662,22.2896772 C114.961501,22.2896772 115.749432,20.6377008 115.749432,18.6377548 L115.749432,11.0506137 Z M135.3729,11 C138.977667,11 142.070663,13.8217163 142.070663,17.5003515 C142.070663,21.1789866 138.977667,24 135.3729,24 C131.770929,24 128.659056,21.1810955 128.659056,17.5003515 C128.659056,13.8196074 131.770929,11 135.3729,11 Z M158.887083,19.8426432 C158.623508,19.8609203 158.359233,19.869356 158.096356,19.869356 L155.180242,19.869356 L155.180242,23.933218 L153.478535,23.933218 L153.478535,11.0506137 L158.529124,11.0506137 C161.285134,11.0506137 163.147644,12.5423133 163.147644,15.3598118 C163.147644,17.2950846 162.316366,18.7432001 160.664997,19.4250798 L164.001294,23.933218 L161.880103,23.933218 L158.887083,19.8426432 Z M185.1391,17.5003515 C185.1391,20.9069378 182.479571,23.7124858 179.108317,23.932515 L179.091537,23.933218 L174.538736,23.933218 L174.538736,11.0506137 L178.69093,11.0506137 C182.238367,11.0506137 185.1391,13.9250527 185.1391,17.5003515 Z M202.628792,11 C206.23286,11 209.325857,13.8217163 209.325857,17.5003515 C209.325857,21.1789866 206.23286,24 202.628792,24 C199.026822,24 195.914949,21.1810955 195.914949,17.5003515 C195.914949,13.8196074 199.026822,11 202.628792,11 Z M231.478814,14.9844265 L226.966563,22.4471422 L222.435435,14.9788028 L222.435435,23.933218 L220.733728,23.933218 L220.733728,11.0506137 L221.997074,11.0506137 L226.965864,19.2134862 L231.933955,11.0506137 L233.180522,11.0506137 L233.180522,23.933218 L231.478814,23.933218 L231.478814,14.9844265 Z M251.302237,11 C254.907004,11 258,13.8217163 258,17.5003515 C258,21.1789866 254.907004,24 251.302237,24 C247.700965,24 244.588393,21.1810955 244.588393,17.5003515 C244.588393,13.8196074 247.700266,11 251.302237,11 Z M92.3408183,13.6965879 L90.0602229,18.8943384 L94.6451845,18.8943384 L92.3408183,13.6965879 Z M135.3729,22.2896772 C138.037323,22.2896772 140.352177,20.2320878 140.352177,17.5003515 C140.352177,14.7707241 138.04012,12.6948575 135.3729,12.6948575 C132.716866,12.6948575 130.377543,14.7770508 130.377543,17.5003515 C130.377543,20.2257611 132.719663,22.2896772 135.3729,22.2896772 Z M155.180242,12.727897 L155.180242,18.208241 L158.079577,18.208241 C160.016195,18.208241 161.412378,17.4961337 161.412378,15.3766831 C161.412378,13.5426378 160.272779,12.727897 158.495565,12.727897 L155.180242,12.727897 Z M176.240443,22.2559347 L178.99995,22.2559347 C181.434356,22.0337966 183.420614,19.9881577 183.420614,17.5003515 C183.420614,14.8684367 181.312007,12.727897 178.69093,12.727897 L176.240443,12.727897 L176.240443,22.2559347 Z M202.628792,22.2896772 C205.292517,22.2896772 207.608069,20.2320878 207.608069,17.5003515 C207.608069,14.7707241 205.295313,12.6948575 202.628792,12.6948575 C199.972759,12.6948575 197.632736,14.7770508 197.632736,17.5003515 C197.632736,20.2257611 199.975555,22.2896772 202.628792,22.2896772 Z M251.302237,22.2896772 C253.96666,22.2896772 256.281513,20.2320878 256.281513,17.5003515 C256.281513,14.7707241 253.969457,12.6948575 251.302237,12.6948575 C248.646203,12.6948575 246.30688,14.7770508 246.30688,17.5003515 C246.30688,20.2257611 248.648999,22.2896772 251.302237,22.2896772 L251.302237,22.2896772 Z" id="Fill-1" fill="#4A4A4A"></path>
                </g>
            </g>
        </g>
    </g>
</svg>